<svg viewBox="-1 0 257 50" fill="none" xmlns="http://www.w3.org/2000/svg" xmlns:xlink="http://www.w3.org/1999/xlink">
  <defs>
    <linearGradient id="deepseekGradient" x1="0%" y1="0%" x2="100%" y2="0%">
      <stop offset="0%" stop-color="#fb923c" />
      <stop offset="50%" stop-color="#f59e0b" />
      <stop offset="100%" stop-color="#eab308" />
    </linearGradient>
  </defs>
  <path d="M111.54 10.4C109.08 10.4 106.6 10.94 104.99 12.46C104.85 12.59 104.72 12.73 104.59 12.87L103.41 12.87L103.41 10.4L96.94 10.4L96.94 49.28L103.41 49.28L103.41 25.12C103.41 22.63 103.95 20.13 105.45 18.5C106.95 16.86 109.25 16.28 111.54 16.28C113.82 16.28 116.13 16.86 117.63 18.5C119.13 20.13 119.67 22.63 119.67 25.12C119.67 27.6 119.13 30.1 117.63 31.73C116.13 33.37 113.82 33.95 111.54 33.95L107.86 33.95L107.86 39.83L111.54 39.83C115.35 39.83 119.18 38.86 121.68 36.14C124.18 33.42 125.07 29.26 125.07 25.12C125.07 20.98 124.18 16.81 121.68 14.09C119.18 11.37 115.35 10.4 111.54 10.4Z" fill="url(#deepseekGradient)" fill-rule="nonzero"></path>
  <path d="M21.16 26.14C21.16 28.63 20.62 31.13 19.12 32.76C17.62 34.39 15.32 34.98 13.03 34.98C10.74 34.98 8.44 34.39 6.94 32.76C5.44 31.13 4.9 28.63 4.9 26.14C4.9 23.66 5.44 21.15 6.94 19.52C8.44 17.89 10.74 17.31 13.03 17.31L16.71 17.31L16.71 11.43L13.03 11.43C9.22 11.43 5.39 12.4 2.89 15.12C0.39 17.84 -0.5 22 -0.5 26.14C-0.5 30.28 0.39 34.45 2.89 37.17C5.39 39.89 9.22 40.86 13.03 40.86C15.49 40.86 17.96 40.31 19.58 38.8C19.72 38.67 19.85 38.53 19.97 38.39L21.16 38.39L21.16 40.86L27.63 40.86L27.63 1.97L21.16 1.97L21.16 26.14Z" fill="url(#deepseekGradient)" fill-rule="nonzero"></path>
  <path d="M46.04 10.4C42.08 10.4 38.1 11.41 35.5 14.22C32.91 17.03 31.98 21.34 31.98 25.63C31.98 29.91 32.91 34.23 35.5 37.04C38.1 39.85 42.08 40.86 46.04 40.86C50 40.86 53.98 39.85 56.58 37.04C57.91 35.59 58.81 33.75 59.37 31.71L52.97 31.71C52.79 31.98 52.59 32.24 52.37 32.48C50.81 34.17 48.42 34.77 46.04 34.77C43.67 34.77 41.28 34.17 39.72 32.48C38.16 30.79 37.6 28.2 37.6 25.63C37.6 23.06 38.16 20.47 39.72 18.78C41.28 17.09 43.67 16.49 46.04 16.49C48.42 16.49 50.81 17.09 52.37 18.78C53.45 19.95 54.05 21.54 54.32 23.27L42.88 23.27L42.88 27.99L60.11 27.99L60.11 25.63C60.11 21.34 59.18 17.03 56.58 14.22C53.99 11.41 50 10.4 46.04 10.4Z" fill="url(#deepseekGradient)" fill-rule="nonzero"></path>
  <path d="M78.52 10.4C74.57 10.4 70.58 11.41 67.99 14.22C65.39 17.03 64.46 21.34 64.46 25.63C64.46 29.91 65.39 34.23 67.99 37.04C70.58 39.85 74.57 40.86 78.52 40.86C82.48 40.86 86.46 39.85 89.06 37.04C90.4 35.59 91.29 33.75 91.85 31.71L85.45 31.71C85.27 31.98 85.07 32.24 84.85 32.48C83.29 34.17 80.9 34.77 78.53 34.77C76.15 34.77 73.76 34.17 72.2 32.48C70.64 30.79 70.08 28.2 70.08 25.63C70.08 23.06 70.64 20.47 72.2 18.78C73.76 17.09 76.15 16.49 78.53 16.49C80.9 16.49 83.29 17.09 84.85 18.78C85.93 19.95 86.53 21.54 86.8 23.27L75.36 23.27L75.36 27.99L92.59 27.99L92.59 25.63C92.59 21.34 91.66 17.03 89.06 14.22C86.47 11.41 82.48 10.4 78.52 10.4Z" fill="url(#deepseekGradient)" fill-rule="nonzero"></path>
  <path d="M154.02 25.13C151.43 23.47 147.44 22.88 143.49 22.88L143.63 22.88C141.94 22.88 140.24 22.65 139.13 22C138.02 21.36 137.63 20.37 137.63 19.39C137.63 18.41 138.02 17.42 139.13 16.78C140.24 16.13 141.94 15.9 143.63 15.9C145.32 15.9 147.02 16.14 148.12 16.78C149.23 17.42 149.63 18.41 149.63 19.39L156.22 19.39C156.22 16.86 155.37 14.32 153.02 12.66C150.67 11 147.07 10.4 143.49 10.4C139.91 10.4 136.31 11 133.96 12.66C131.61 14.32 130.77 16.86 130.77 19.39C130.77 21.92 131.61 24.47 133.96 26.12C136.31 27.78 139.91 28.38 143.49 28.38C145.35 28.38 147.39 28.61 148.61 29.25C149.84 29.9 150.28 30.89 150.28 31.87C150.28 32.85 149.84 33.84 148.61 34.48C147.39 35.12 145.51 35.35 143.64 35.35C141.78 35.35 139.9 35.12 138.67 34.48C137.45 33.83 137.01 32.85 137.01 31.87L129.42 31.87C129.42 34.39 130.35 36.94 132.95 38.6C135.55 40.26 139.53 40.85 143.49 40.85C147.44 40.85 151.43 40.26 154.02 38.6C156.62 36.94 157.55 34.39 157.55 31.87C157.55 29.34 156.62 26.79 154.02 25.13Z" fill="url(#deepseekGradient)" fill-rule="nonzero"></path>
  <path d="M175.97 10.4C172.01 10.4 168.03 11.41 165.43 14.22C162.84 17.03 161.9 21.34 161.9 25.63C161.9 29.91 162.84 34.23 165.43 37.04C168.03 39.85 172.01 40.86 175.97 40.86C179.93 40.86 183.91 39.85 186.51 37.04C187.84 35.59 188.74 33.75 189.29 31.71L182.9 31.71C182.72 31.98 182.52 32.24 182.3 32.48C180.74 34.17 178.35 34.77 175.97 34.77C173.6 34.77 171.2 34.17 169.65 32.48C168.09 30.79 167.53 28.2 167.53 25.63C167.53 23.06 168.09 20.47 169.65 18.78C171.2 17.09 173.6 16.49 175.97 16.49C178.35 16.49 180.74 17.09 182.3 18.78C183.38 19.95 183.98 21.54 184.25 23.27L172.8 23.27L172.8 27.99L190.04 27.99L190.04 25.63C190.04 21.34 189.11 17.03 186.51 14.22C183.91 11.41 179.93 10.4 175.97 10.4Z" fill="url(#deepseekGradient)" fill-rule="nonzero"></path>
  <path d="M208.45 10.4C204.49 10.4 200.51 11.41 197.91 14.22C195.32 17.03 194.38 21.34 194.38 25.63C194.38 29.91 195.32 34.23 197.91 37.04C200.51 39.85 204.49 40.86 208.45 40.86C212.41 40.86 216.39 39.85 218.99 37.04C220.32 35.59 221.22 33.75 221.78 31.71L215.38 31.71C215.2 31.98 215 32.24 214.78 32.48C213.22 34.17 210.83 34.77 208.45 34.77C206.08 34.77 203.68 34.17 202.13 32.48C200.57 30.79 200.01 28.2 200.01 25.63C200.01 23.06 200.57 20.47 202.13 18.78C203.68 17.09 206.08 16.49 208.45 16.49C210.83 16.49 213.22 17.09 214.78 18.78C215.86 19.95 216.46 21.54 216.73 23.27L205.29 23.27L205.29 27.99L222.52 27.99L222.52 25.63C222.52 21.34 221.59 17.03 218.99 14.22C216.39 11.41 212.41 10.4 208.45 10.4Z" fill="url(#deepseekGradient)" fill-rule="nonzero"></path>
  <path d="M226.86 0.61L233.33 0.61L233.33 40.86L226.86 40.86L226.86 0.61Z" fill="url(#deepseekGradient)" fill-rule="evenodd"></path>
  <path d="M246.98 11.75L236.36 24.72L246.98 40.86L255 40.86L244.38 24.72L255 11.75L246.98 11.75Z" fill="url(#deepseekGradient)" fill-rule="nonzero"></path>
</svg>