
      <svg viewBox="0 0 520 80" fill="none" xmlns="http://www.w3.org/2000/svg">
        <defs>
          {/* Main gradient */}
          <linearGradient id="mainGradient" x1="0%" y1="0%" x2="100%" y2="0%">
            <stop offset="0%" stopColor="#fb923c" />
            <stop offset="50%" stopColor="#f59e0b" />
            <stop offset="100%" stopColor="#eab308" />
          </linearGradient>
          
          {/* Shadow gradient */}
          <linearGradient id="shadowGradient" x1="0%" y1="0%" x2="100%" y2="0%">
            <stop offset="0%" stopColor="#ea580c" stopOpacity="0.3" />
            <stop offset="50%" stopColor="#d97706" stopOpacity="0.3" />
            <stop offset="100%" stopColor="#ca8a04" stopOpacity="0.3" />
          </linearGradient>
          
          {/* Drop shadow filter */}
          <filter id="dropshadow" x="-20%" y="-20%" width="140%" height="140%">
            <feDropShadow dx="2" dy="4" stdDeviation="2" floodColor="#000000" floodOpacity="0.2"/>
          </filter>
        </defs>
        
        {/* Shadow layer */}
        <g transform="translate(2, 4)" fill="url(#shadowGradient)">
          {/* S */}
          <path d="M28 48C24 48 20 46.5 17.5 43.5C15 40.5 14 36 14 32C14 28 15 23.5 17.5 20.5C20 17.5 24 16 28 16C30 16 32 16.5 33.5 17.5L31 23C30.2 22.5 29.2 22 28 22C26 22 24.5 22.8 23.5 24.5C22.5 26.2 22 28.8 22 32C22 35.2 22.5 37.8 23.5 39.5C24.5 41.2 26 42 28 42C29.2 42 30.2 41.5 31 41L33.5 46.5C32 47.5 30 48 28 48Z"/>
          
          {/* C */}
          <path d="M52 48C48 48 44 46.5 41.5 43.5C39 40.5 38 36 38 32C38 28 39 23.5 41.5 20.5C44 17.5 48 16 52 16C54 16 56 16.5 57.5 17.5L55 23C54.2 22.5 53.2 22 52 22C50 22 48.5 22.8 47.5 24.5C46.5 26.2 46 28.8 46 32C46 35.2 46.5 37.8 47.5 39.5C48.5 41.2 50 42 52 42C53.2 42 54.2 41.5 55 41L57.5 46.5C56 47.5 54 48 52 48Z"/>
          
          {/* H */}
          <path d="M64 16L64 48L72 48L72 35L82 35L82 48L90 48L90 16L82 16L82 28L72 28L72 16L64 16Z"/>
          
          {/* O */}
          <path d="M106 48C102 48 98 46.5 95.5 43.5C93 40.5 92 36 92 32C92 28 93 23.5 95.5 20.5C98 17.5 102 16 106 16C110 16 114 17.5 116.5 20.5C119 23.5 120 28 120 32C120 36 119 40.5 116.5 43.5C114 46.5 110 48 106 48ZM106 22C104 22 102.5 22.8 101.5 24.5C100.5 26.2 100 28.8 100 32C100 35.2 100.5 37.8 101.5 39.5C102.5 41.2 104 42 106 42C108 42 109.5 41.2 110.5 39.5C111.5 37.8 112 35.2 112 32C112 28.8 111.5 26.2 110.5 24.5C109.5 22.8 108 22 106 22Z"/>
          
          {/* L */}
          <path d="M128 16L128 48L154 48L154 42L136 42L136 16L128 16Z"/>
          
          {/* A */}
          <path d="M164 16L156 48L164 48L165.5 43L172.5 43L174 48L182 48L174 16L164 16ZM167 37L169 28L171 37L167 37Z"/>
          
          {/* R */}
          <path d="M190 16L190 48L198 48L198 35L202 35L206 48L214 48L209.5 34C211.5 32.5 212.5 30 212.5 27C212.5 23 210.5 16 204 16L190 16ZM198 22L203 22C205 22 206 23.5 206 26C206 28.5 205 30 203 30L198 30L198 22Z"/>
          
          {/* A */}
          <path d="M222 16L214 48L222 48L223.5 43L230.5 43L232 48L240 48L232 16L222 16ZM225 37L227 28L229 37L225 37Z"/>
        </g>
        
        {/* Main text */}
        <g fill="url(#mainGradient)" filter="url(#dropshadow)">
          {/* S */}
          <path d="M26 46C22 46 18 44.5 15.5 41.5C13 38.5 12 34 12 30C12 26 13 21.5 15.5 18.5C18 15.5 22 14 26 14C28 14 30 14.5 31.5 15.5L29 21C28.2 20.5 27.2 20 26 20C24 20 22.5 20.8 21.5 22.5C20.5 24.2 20 26.8 20 30C20 33.2 20.5 35.8 21.5 37.5C22.5 39.2 24 40 26 40C27.2 40 28.2 39.5 29 39L31.5 44.5C30 45.5 28 46 26 46Z"/>
          
          {/* C */}
          <path d="M50 46C46 46 42 44.5 39.5 41.5C37 38.5 36 34 36 30C36 26 37 21.5 39.5 18.5C42 15.5 46 14 50 14C52 14 54 14.5 55.5 15.5L53 21C52.2 20.5 51.2 20 50 20C48 20 46.5 20.8 45.5 22.5C44.5 24.2 44 26.8 44 30C44 33.2 44.5 35.8 45.5 37.5C46.5 39.2 48 40 50 40C51.2 40 52.2 39.5 53 39L55.5 44.5C54 45.5 52 46 50 46Z"/>
          
          {/* H */}
          <path d="M62 14L62 46L70 46L70 33L80 33L80 46L88 46L88 14L80 14L80 26L70 26L70 14L62 14Z"/>
          
          {/* O */}
          <path d="M104 46C100 46 96 44.5 93.5 41.5C91 38.5 90 34 90 30C90 26 91 21.5 93.5 18.5C96 15.5 100 14 104 14C108 14 112 15.5 114.5 18.5C117 21.5 118 26 118 30C118 34 117 38.5 114.5 41.5C112 44.5 108 46 104 46ZM104 20C102 20 100.5 20.8 99.5 22.5C98.5 24.2 98 26.8 98 30C98 33.2 98.5 35.8 99.5 37.5C100.5 39.2 102 40 104 40C106 40 107.5 39.2 108.5 37.5C109.5 35.8 110 33.2 110 30C110 26.8 109.5 24.2 108.5 22.5C107.5 20.8 106 20 104 20Z"/>
          
          {/* L */}
          <path d="M126 14L126 46L152 46L152 40L134 40L134 14L126 14Z"/>
          
          {/* A */}
          <path d="M162 14L154 46L162 46L163.5 41L170.5 41L172 46L180 46L172 14L162 14ZM165 35L167 26L169 35L165 35Z"/>
          
          {/* R */}
          <path d="M188 14L188 46L196 46L196 33L200 33L204 46L212 46L207.5 32C209.5 30.5 210.5 28 210.5 25C210.5 21 208.5 14 202 14L188 14ZM196 20L201 20C203 20 204 21.5 204 24C204 26.5 203 28 201 28L196 28L196 20Z"/>
          
          {/* A */}
          <path d="M220 14L212 46L220 46L221.5 41L228.5 41L230 46L238 46L230 14L220 14ZM223 35L225 26L227 35L223 35Z"/>
        </g>
        
        {/* Decorative elements */}
        <circle cx="270" cy="30" r="3" fill="url(#mainGradient)" opacity="0.8"/>
        <circle cx="280" cy="25" r="2" fill="url(#mainGradient)" opacity="0.6"/>
        <circle cx="275" cy="35" r="1.5" fill="url(#mainGradient)" opacity="0.7"/>
        
        {/* Underline accent */}
        <rect x="10" y="52" width="260" height="3" rx="1.5" fill="url(#mainGradient)" opacity="0.8"/>
        <rect x="10" y="56" width="230" height="1.5" rx="0.75" fill="url(#mainGradient)" opacity="0.5"/>
      </svg>